<svg xmlns="http://www.w3.org/2000/svg" width="32" height="32">
  <path fill="none" stroke="#54adff" stroke-linejoin="round" stroke-linecap="round" stroke-width="2" d="M13.019 7.06c.894-.25 1.921-.393 2.981-.393h.001C24.486 6.667 29.334 16 29.334 16s-1.105 2.128-3.184 4.352M5.799 11.703C3.754 13.908 2.667 16 2.667 16S7.515 25.333 16 25.333c1.079 0 2.123-.149 3.113-.427l-.081.019m-3.699-4.978a4.02 4.02 0 0 1-3.098-2.585l-.009-.028m4.441-5.279a4.012 4.012 0 0 1 3.275 3.255l.003.024M4 4l24 24"/>
</svg>
